<?xml version="1.0" encoding="UTF-8"?>
<svg id="Camada_1" data-name="Camada 1" xmlns="http://www.w3.org/2000/svg" viewBox="0 0 419.18 512">
  <defs>
    <style>
      .cls-1 {
        fill: #642714;
      }
    </style>
  </defs>
  <path class="cls-1" d="M184.96,438.93h0c2.55-1.56,3.35-4.73,1.79-7.07l-4.43-6.64c-.29-.43-.84-.63-1.35-.48-3.65,1.1-18.33,5.17-32.49,4.01-35-2.87-54.18-23.07-60.25-30.69-.69-.87-2.13-.4-2.13.69v.03c-.18,35.92,66.99,59.68,98.85,40.14Z"/>
  <path class="cls-1" d="M200.76,461.69h0c2.61-2.42,3.07-6.01,1.04-8.02l-5.56-6.1c-.38-.37-1.22-.03-1.76.29-3.87,2.26-19.52,10.96-35.3,13.96-38.99,7.42-62.84-8.25-70.54-14.51-.88-.71-2.4.21-2.26,1.37,0,.01,0,.02,0,.04,4.59,38.1,81.84,43.2,114.38,12.98Z"/>
  <path class="cls-1" d="M235.09,478.17c-7-3.65-12.12-7.66-15.1-9.88-1.51-1.12-2.97-1.67-5.49.08-5.6,3.88-19.68,12.65-33.73,19.18-27.8,12.92-59.37-1.01-60.75,4.13-.56,2.09,4.83,6.54,10.62,9.94,6.8,3.99,14.34,7.1,24.95,9.13,3.32.63,17.1,2.25,35.42.35,17.9-1.85,30.77-7.52,34.72-9.13,12.87-5.25,22.55-11.79,29.12-17.01.11-.09.06-.25-.08-.28-4.8-.8-11.97-2.5-19.68-6.52Z"/>
  <path class="cls-1" d="M382.15,0h0l-204.91,212.18v-57.37c0-9.04,1.05-18.05,3.13-26.87,3.43-14.57.86-28.09-8.57-37.26-16.54-16.1-48.84-13.65-77.4,4.17-2.22-3.33-4.42-6.24-6.11-8.15-8.08-9.12-11.78-12.74-20.44-20.4-12.9-11.41-44.23-27.54-50.14-28.85-3.98-.89-11.1-1.06-9.99,8.09.4,3.26,6.16,9.48,9.78,12.33,15.83,12.43,39.21,10.96,52.13,21.93,7.93,6.73,11.08,10.43,17.67,19.86-2.49,1.83-4.95,3.76-7.34,5.83-1.08.94-2.13,1.89-3.16,2.85-3.67-2.28-7.36-4.36-12.51-7.16-15.27-8.3-49.6-17.18-55.67-17.17-4.09,0-11.06,1.38-7.81,10.05,1.16,3.09,8.25,7.89,12.45,9.87,18.36,8.66,40.78,2.13,55.97,9.99.46.24.9.47,1.34.7-5.85,6.39-10.63,13.13-14.21,19.91-2.65,4.69-5.32,10.69-6.99,17.8-2.42,10.3-13.31,59.23-13.31,59.23,0,0,27.44-3.7,50.01-10.19v4.82c-12.44,11.5-20.48,29.75-20.48,50.31s8.04,38.81,20.48,50.31v46.29c0,35.61,37.84,64.47,84.52,64.47h0c2.23,0,4.75-.05,6.01-1.26.13-.12.15-.31.07-.47-1.24-2.41-2.98-5.64-4.1-8.1-11.89-26.04-16.32-51.87-13.63-71.11,3.48,4.69,7.31,9.41,11.49,14.13,16.19,18.26,35.11,33.68,53.83,44.8,10.34,6.14,20.61,10.96,30.33,14.23,34.33,13.97,78.66,9.13,106.97-12.48l-119.74-125.89.14-.11c27.18-3.16,61.98-19.81,95.58-48.04,24.2-20.34,44.03-43.52,57.76-66.04,7.57-12.44,13.28-24.67,16.84-36.12,16.01-40.67,4.04-90.9-30.01-121.13Z"/>
</svg>